<svg width="96" height="28" viewBox="0 0 96 28" fill="none" xmlns="http://www.w3.org/2000/svg">
<g clip-path="url(#clip0_110_2141)">
<path d="M4.26784 3.72464L13.2143 22.4366L21.5179 3.72464H23.4107L12.6607 27.7931H11.625L0.0714111 3.72464H4.26784ZM28.8286 9.77281L31.3822 8.74407H32.4357V27.2432H28.8286V9.77281ZM28.5428 2.12836C28.5428 1.84457 28.5964 1.57853 28.7035 1.33021C28.8107 1.0819 28.9595 0.863156 29.15 0.673963C29.3405 0.484774 29.5607 0.33697 29.8107 0.230552C30.0607 0.124132 30.3286 0.0709229 30.6143 0.0709229C30.9 0.0709229 31.1678 0.124132 31.4178 0.230552C31.6679 0.33697 31.8881 0.484774 32.0785 0.673963C32.269 0.863156 32.4178 1.0819 32.525 1.33021C32.6321 1.57853 32.6857 1.84457 32.6857 2.12836C32.6857 2.41214 32.6321 2.67818 32.525 2.9265C32.4178 3.17481 32.269 3.39355 32.0785 3.58275C31.8881 3.77194 31.6679 3.91974 31.4178 4.02616C31.1678 4.13258 30.9 4.18579 30.6143 4.18579C30.3286 4.18579 30.0607 4.13258 29.8107 4.02616C29.5607 3.91974 29.3405 3.77194 29.15 3.58275C28.9595 3.39355 28.8107 3.17481 28.7035 2.9265C28.5964 2.67818 28.5428 2.41214 28.5428 2.12836ZM41.7464 9.08106L48.2107 22.8269L54.4072 9.08106H56.05L47.8178 27.4383H46.5678L37.9428 9.08106H41.7464ZM63.9678 8.74407H64.5214L65.0036 12.451C65.2893 11.9071 65.6464 11.4104 66.075 10.9611C66.5035 10.5118 66.9738 10.1216 67.4857 9.79052C68.0095 9.45944 68.5571 9.20524 69.1285 9.02786C69.7119 8.83867 70.3012 8.74407 70.8964 8.74407C71.4321 8.74407 71.9559 8.81498 72.4679 8.95687C72.9917 9.09877 73.4798 9.32345 73.9321 9.63092L72.7892 12.6638C72.5511 12.4037 72.3012 12.1968 72.0393 12.0431C71.7774 11.8775 71.5095 11.7533 71.2357 11.6706C70.9619 11.576 70.6821 11.5169 70.3964 11.4932C70.1107 11.4695 69.825 11.4577 69.5393 11.4577C69.0869 11.4577 68.6404 11.5228 68.2 11.6528C67.7714 11.7829 67.3607 11.978 66.9678 12.2382C66.575 12.4865 66.2119 12.8116 65.8785 13.2136C65.5452 13.6039 65.2535 14.065 65.0036 14.5971V27.2432H61.3786V9.73732L63.9678 8.74407ZM86.7604 27.6334C85.5223 27.6334 84.3558 27.4028 83.2609 26.9417C82.1775 26.4806 81.2312 25.8539 80.4213 25.0616C79.6122 24.2694 78.9691 23.3412 78.4929 22.277C78.0282 21.201 77.7966 20.0599 77.7966 18.8539C77.7966 17.3995 78.0107 16.0574 78.4396 14.8277C78.8678 13.5861 79.475 12.5161 80.2606 11.6174C81.0461 10.7188 81.987 10.0152 83.0819 9.50673C84.1889 8.99827 85.4217 8.74407 86.7787 8.74407C87.9688 8.74407 89.0644 8.95687 90.064 9.38255C91.0644 9.79642 91.9215 10.3581 92.6354 11.0675C93.3615 11.7652 93.9215 12.5752 94.3139 13.4974C94.7192 14.4197 94.9211 15.3834 94.9211 16.3885H81.2968C81.2968 17.6064 81.4514 18.7356 81.7607 19.7761C82.0823 20.8167 82.5288 21.7153 83.1002 22.4721C83.6716 23.2288 84.3497 23.8201 85.136 24.2458C85.9215 24.6715 86.7848 24.8843 87.7249 24.8843C88.5105 24.8843 89.2663 24.7601 89.9931 24.5118C90.7192 24.2517 91.3737 23.9147 91.9573 23.5008C92.5524 23.087 93.0583 22.614 93.475 22.0819C93.8918 21.5498 94.1836 21 94.3497 20.4324L95.4034 20.8936C95.1413 21.8277 94.7192 22.7027 94.1356 23.5185C93.552 24.3344 92.8678 25.0498 92.0823 25.6647C91.3082 26.2677 90.4632 26.7466 89.5467 27.1013C88.6301 27.456 87.7013 27.6334 86.7604 27.6334ZM90.368 14.9341C90.368 14.2483 90.243 13.6098 89.9931 13.0185C89.7547 12.4274 89.4217 11.9189 88.9928 11.4932C88.5646 11.0557 88.064 10.7128 87.4926 10.4645C86.9211 10.2162 86.3086 10.092 85.6533 10.092C85.1063 10.092 84.5821 10.2162 84.0823 10.4645C83.5825 10.701 83.136 11.038 82.7428 11.4755C82.3497 11.9012 82.0228 12.4096 81.7607 13.0008C81.5108 13.592 81.3615 14.2306 81.3143 14.9163L90.368 14.9341Z" fill="#343A40"/>
</g>
<defs>
<clipPath id="clip0_110_2141">
<rect width="96" height="28" fill="white"/>
</clipPath>
</defs>
</svg>
